<?xml version="1.0" encoding="utf-8"?>
<!-- Svg Vector Icons : http://www.onlinewebfonts.com/icon -->
<!DOCTYPE svg PUBLIC "-//W3C//DTD SVG 1.1//EN" "http://www.w3.org/Graphics/SVG/1.1/DTD/svg11.dtd">
<svg version="1.1" xmlns="http://www.w3.org/2000/svg" xmlns:xlink="http://www.w3.org/1999/xlink" x="0px" y="0px" viewBox="0 0 1000 1000" enable-background="new 0 0 1000 1000" xml:space="preserve">
<metadata> Svg Vector Icons : http://www.onlinewebfonts.com/icon </metadata>
<g><path d="M878.6,121.4H121.4C59.9,121.4,10,171.3,10,232.8v534.4c0,61.5,49.9,111.4,111.4,111.4h757.3c61.5,0,111.4-49.9,111.4-111.4V232.8C990,171.3,940.1,121.4,878.6,121.4z M143.9,187.1h712.7c6.3,0,12.3,1.4,18.1,3.1L555,487.8c0,0-31.6,34.5-54.8,34.5c-21.7,0-54.1-34.2-54.1-34.2L126.3,190.1C131.9,188.6,137.7,187.1,143.9,187.1z M87.3,753.9c-3.2,3.2-5.5,6.8-7.1,10.7c-2-6.3-3-13.1-3-20.1v-490c0-6.5,1.2-12.7,2.9-18.6l283.1,263.4L87.3,753.9z M856.6,811.4H143.9c-7,0-13.7-1.1-20.1-3.1c3.9-1.6,7.5-4,10.7-7.2L411.9,545c40.2,32.7,52.3,43.6,88.3,43.6c36.2,0,52.8-13.3,88.6-44l277.8,256.5c3.1,3.1,6.6,5.4,10.4,7.1C870.6,810.2,863.7,811.4,856.6,811.4z M922.9,744.5c0,6.7-0.7,13.1-2.5,19.2c-1.6-3.5-3.7-6.8-6.6-9.7L637.8,499.3l282.5-262.9c1.6,5.8,2.5,11.8,2.5,18.1V744.5z"/></g>
</svg>